<svg xmlns="http://www.w3.org/2000/svg" xmlns:xlink="http://www.w3.org/1999/xlink" width="19.2" height="19.2" viewBox="0 0 19.2 19.2">
  <defs>
    <clipPath id="clip-path">
      <rect width="19.2" height="19.2" fill="none"/>
    </clipPath>
  </defs>
  <g id="icon_help-center" clip-path="url(#clip-path)">
    <path id="Path_107" data-name="Path 107" d="M9.6,0a9.6,9.6,0,1,0,9.6,9.6A9.628,9.628,0,0,0,9.6,0Zm0,12A2.4,2.4,0,1,1,12,9.6,2.407,2.407,0,0,1,9.6,12Zm0-9.6a7,7,0,0,1,3.12.72L10.853,4.987a4.31,4.31,0,0,0-2.507,0L6.48,3.12A7,7,0,0,1,9.6,2.4ZM2.4,9.6a7,7,0,0,1,.72-3.12L4.987,8.347a4.31,4.31,0,0,0,0,2.507L3.12,12.72A7,7,0,0,1,2.4,9.6Zm7.2,7.2a7,7,0,0,1-3.12-.72l1.867-1.867a4.31,4.31,0,0,0,2.507,0L12.72,16.08A7,7,0,0,1,9.6,16.8Zm6.48-4.08-1.867-1.867a4.31,4.31,0,0,0,0-2.507L16.08,6.48a7.12,7.12,0,0,1,0,6.24Z" fill="#344069"/>
  </g>
</svg>
