<svg xmlns="http://www.w3.org/2000/svg" width="21.6" height="21.6" viewBox="0 0 21.6 21.6">
  <path id="Path_108" data-name="Path 108" d="M17.955,7.02,19.44,4.185,17.55,2.3,14.715,3.78a4.836,4.836,0,0,0-1.485-.54L12.15,0H9.45L8.37,3.105a5.642,5.642,0,0,0-1.35.54L4.185,2.16,2.16,4.185,3.645,7.02a5.642,5.642,0,0,0-.54,1.35L0,9.45v2.7l3.105,1.08c.135.54.405.945.54,1.485L2.16,17.55l1.89,1.89,2.835-1.485a4.836,4.836,0,0,0,1.485.54L9.45,21.6h2.7L13.23,18.5c.54-.135.945-.405,1.485-.54L17.55,19.44l1.89-1.89-1.485-2.835a4.836,4.836,0,0,0,.54-1.485L21.6,12.15V9.45L18.5,8.37A5.642,5.642,0,0,0,17.955,7.02ZM10.8,14.85A3.978,3.978,0,0,1,6.75,10.8,3.978,3.978,0,0,1,10.8,6.75a3.978,3.978,0,0,1,4.05,4.05A3.978,3.978,0,0,1,10.8,14.85Z" fill="#344069"/>
</svg>
